<?xml version="1.0" encoding="UTF-8" standalone="no"?>
<!-- Created with Inkscape (http://www.inkscape.org/) -->

<svg
   version="1.1"
   id="svg1"
   width="200mm"
   height="148.963mm"
   viewBox="0 0 755.90549 563.00978"
   sodipodi:docname="plutotv2024.svg"
   xml:space="preserve"
   inkscape:version="1.3 (0e150ed, 2023-07-21)"
   xmlns:inkscape="http://www.inkscape.org/namespaces/inkscape"
   xmlns:sodipodi="http://sodipodi.sourceforge.net/DTD/sodipodi-0.dtd"
   xmlns="http://www.w3.org/2000/svg"
   xmlns:svg="http://www.w3.org/2000/svg"><defs
     id="defs1" /><sodipodi:namedview
     id="namedview1"
     pagecolor="#ffffff"
     bordercolor="#111111"
     borderopacity="1"
     inkscape:showpageshadow="0"
     inkscape:pageopacity="0"
     inkscape:pagecheckerboard="1"
     inkscape:deskcolor="#d1d1d1"
     inkscape:zoom="0.55312501"
     inkscape:cx="107.57062"
     inkscape:cy="94.915252"
     inkscape:window-width="1440"
     inkscape:window-height="872"
     inkscape:window-x="0"
     inkscape:window-y="28"
     inkscape:window-maximized="0"
     inkscape:current-layer="g1"
     inkscape:document-units="mm" /><g
     inkscape:groupmode="layer"
     inkscape:label="Image"
     id="g1"><g
       id="g3"
       transform="matrix(3.7481197,0,0,3.7481197,-28.1475,-8.3820254)"
       style="stroke-width:0.2668"><path
         style="opacity:1;fill:#fff200;fill-opacity:1;stroke-width:50.4189"
         d="m 174.97431,39.699395 -6.86106,2.771848 v 4.273265 h -4.73161 v 6.016495 h 4.73161 v 11.127083 c 0,5.979982 3.38689,9.56071 9.7123,9.56071 h 4.66307 v -6.2908 h -3.79324 c -2.61361,0 -3.72468,-1.425912 -3.72468,-3.724659 V 52.761003 h 8.579 l 8.55373,20.687793 h 5.97321 l 11.10905,-26.866698 h -7.41324 l -6.6806,17.443138 -6.61563,-17.280728 h -13.50191 z"
         id="path2" /><path
         id="path3"
         style="opacity:1;fill:#fff200;fill-opacity:1;stroke-width:50.4191"
         d="M 82.615234,2.2363281 A 75.105133,75.105133 0 0 0 7.5097656,77.341797 75.105133,75.105133 0 0 0 82.615234,152.44727 75.105133,75.105133 0 0 0 155.7832,93.421875 c -1.9643,0.77209 -4.09567,1.208984 -6.33398,1.208984 -9.57852,0 -17.34375,-7.763276 -17.34375,-17.341797 0,-9.578521 7.76523,-17.34375 17.34375,-17.34375 2.30001,0 4.48957,0.456498 6.49805,1.269532 A 75.105133,75.105133 0 0 0 82.615234,2.2363281 Z M 66.416016,51.84375 v 42.130859 h -9.72461 V 55.773438 Z m 55.232424,0 v 8.757812 h 8.08008 v 8.935547 h -8.08008 v 10.740235 c 0,3.29378 1.46847,4.761719 4.76172,4.761718 h 3.31836 v 8.935547 h -4.83008 c -4.0161,0 -7.3215,-1.177696 -9.5586,-3.40625 -2.23709,-2.228554 -3.41601,-5.511671 -3.41601,-9.501953 V 69.537109 h -5.98438 v -8.935547 h 5.98438 v -4.828124 z m -84.912112,8.103516 c 9.042763,0 16.126953,7.632708 16.126953,17.375 0,4.658473 -1.626358,8.99973 -4.580078,12.224609 -2.952892,3.255938 -7.151392,5.102881 -11.546875,5.082031 -3.751349,0 -7.02542,-1.090902 -9.554687,-3.373047 V 102.73242 H 17.458984 V 63.867188 l 7.863282,-3.175782 1.341796,3.248047 c 2.563274,-2.619 6.009165,-3.992187 10.072266,-3.992187 z m 65.394532,0.660156 v 18.257812 c 0.0189,5.645555 -2.981134,10.870951 -7.867188,13.699219 -4.886057,2.828267 -10.912771,2.828267 -15.798828,0 -4.886055,-2.828268 -7.886071,-8.053664 -7.867188,-13.699219 v -13.99414 l 9.658203,-3.902344 v 18.175781 c 0,3.373504 2.735871,6.109375 6.109375,6.109375 3.373505,0 6.107422,-2.735871 6.107422,-6.109375 V 64.509766 Z M 35.25,69.322266 c -4.46886,0 -8.091797,3.567551 -8.091797,7.966796 0,4.399245 3.622937,7.964844 8.091797,7.964844 4.46975,0 8.091797,-3.565777 8.091797,-7.964844 0,-4.399067 -3.622937,-7.966796 -8.091797,-7.966796 z m 114.19922,0 c -4.39919,0 -7.9668,3.56761 -7.9668,7.966796 0,4.399186 3.56761,7.964844 7.9668,7.964844 2.11258,0 4.13705,-0.840166 5.63086,-2.333984 1.49382,-1.493817 2.33398,-3.518283 2.33398,-5.63086 0,-4.399186 -3.56566,-7.966796 -7.96484,-7.966796 z" /></g></g></svg>
